<svg width="64" height="48" viewBox="0 0 64 48" fill="none" xmlns="http://www.w3.org/2000/svg">
<path d="M16.231 0.00670815C15.8231 0.0371806 15.4469 0.170429 15.1763 0.380173C14.9058 0.589919 14.7607 0.860943 14.7695 1.13985V5.04482H7.38494C3.10888 5.04482 0.000380099 7.36655 0.000380099 10.0656V11.1812C-0.0026968 11.3291 0.0374762 11.4759 0.118564 11.6131C0.199652 11.7503 0.320037 11.8752 0.472724 11.9805C0.625408 12.0858 0.807353 12.1694 1.00798 12.2264C1.20861 12.2835 1.42391 12.3129 1.64139 12.3129C1.85887 12.3129 2.07418 12.2835 2.2748 12.2264C2.47542 12.1694 2.65736 12.0858 2.81006 11.9805C2.96274 11.8752 3.08312 11.7503 3.16422 11.6131C3.2453 11.4759 3.28548 11.3291 3.2824 11.1812V10.0656C3.2824 8.42577 4.71779 7.27625 7.38494 7.27625H14.7695V10.0656C14.7664 10.2134 14.8066 10.3602 14.8877 10.4974C14.9688 10.6346 15.0891 10.7595 15.2418 10.8647C15.3945 10.97 15.5765 11.0536 15.7771 11.1107C15.9777 11.1678 16.193 11.1971 16.4105 11.1971C16.628 11.1971 16.8433 11.1678 17.0439 11.1107C17.2445 11.0536 17.4265 10.97 17.5791 10.8647C17.7318 10.7595 17.8522 10.6346 17.9333 10.4974C18.0144 10.3602 18.0546 10.2134 18.0515 10.0656V7.27625H45.9487V10.0656C45.9457 10.2134 45.9857 10.3602 46.0669 10.4974C46.1479 10.6346 46.2683 10.7595 46.4211 10.8647C46.5737 10.97 46.7557 11.0536 46.9563 11.1107C47.1569 11.1678 47.3723 11.1971 47.5897 11.1971C47.8071 11.1971 48.0225 11.1678 48.2231 11.1107C48.4237 11.0536 48.6057 10.97 48.7583 10.8647C48.9111 10.7595 49.0315 10.6346 49.1125 10.4974C49.1935 10.3602 49.2337 10.2134 49.2307 10.0656V7.27625H56.6151C59.2821 7.27625 60.7176 8.42577 60.7176 10.0656V17.8755H3.2824V15.6441C3.28742 15.4853 3.24252 15.3275 3.15068 15.1815C3.05882 15.0354 2.92216 14.9043 2.74982 14.7971C2.57746 14.6897 2.37342 14.6088 2.15132 14.5594C1.92921 14.5102 1.69416 14.4936 1.4619 14.511C1.05404 14.5415 0.677768 14.6746 0.407239 14.8844C0.13671 15.0942 -0.00844596 15.3652 0.000380099 15.6441V42.9791C0.000380099 45.6858 3.1345 47.9999 7.41059 47.9999H50.0511C50.2686 48.0019 50.4846 47.9744 50.6861 47.9193C50.8881 47.8642 51.0716 47.7822 51.2261 47.6785C51.3811 47.5748 51.5041 47.451 51.5881 47.3146C51.6716 47.1782 51.7151 47.0319 51.7151 46.884C51.7151 46.7364 51.6716 46.5898 51.5881 46.4534C51.5041 46.317 51.3811 46.1935 51.2261 46.0895C51.0716 45.9857 50.8881 45.9041 50.6861 45.8487C50.4846 45.7936 50.2686 45.7664 50.0511 45.7684H7.41059C4.74347 45.7684 3.2824 44.611 3.2824 42.9791V20.107H60.7176V38.5165C60.7146 38.6641 60.7551 38.811 60.8361 38.9481C60.9171 39.0851 61.0371 39.2103 61.1901 39.3154C61.3426 39.4205 61.5246 39.5042 61.7251 39.5613C61.9261 39.6184 62.1411 39.6477 62.3586 39.6477C62.5761 39.6477 62.7916 39.6184 62.9921 39.5613C63.1926 39.5042 63.3746 39.4205 63.5271 39.3154C63.6801 39.2103 63.8006 39.0851 63.8816 38.9481C63.9626 38.811 64.0031 38.6641 63.9996 38.5165V10.0656C63.9996 7.36655 60.8911 5.04482 56.6151 5.04482H49.2307V1.13985C49.2357 0.981018 49.1909 0.823306 49.0989 0.67723C49.0071 0.531154 48.8705 0.400104 48.6981 0.292828C48.5257 0.185555 48.3217 0.104523 48.0995 0.0551842C47.8775 0.00584483 47.6425 -0.010687 47.4101 0.00670815C47.0023 0.0371806 46.6261 0.170429 46.3555 0.380173C46.0851 0.589919 45.9399 0.860943 45.9487 1.13985V5.04482H18.0515V1.13985C18.0565 0.981018 18.0116 0.823306 17.9198 0.67723C17.8279 0.531154 17.6913 0.400104 17.5189 0.292828C17.3466 0.185555 17.1425 0.104523 16.9204 0.0551842C16.6983 0.00584483 16.4633 -0.010687 16.231 0.00670815ZM45.7949 26.226C45.4273 26.253 45.0841 26.3636 44.8205 26.5398L27.3078 37.941L19.3848 30.6016C19.1297 30.3613 18.7447 30.1997 18.3144 30.1523C17.8842 30.1051 17.4439 30.1759 17.0903 30.3492C16.7368 30.5225 16.499 30.7843 16.4292 31.0768C16.3594 31.3693 16.4634 31.6687 16.7182 31.9091L25.7436 40.2769C25.8806 40.4061 26.0566 40.514 26.2598 40.5929C26.463 40.6721 26.6888 40.7207 26.922 40.7357C27.1552 40.7503 27.3904 40.7313 27.6116 40.6793C27.833 40.6272 28.0354 40.5435 28.2052 40.434L47.0769 28.161C47.3333 28.0025 47.5095 27.793 47.5799 27.5623C47.6505 27.3317 47.6119 27.0917 47.4695 26.8769C47.3271 26.6621 47.0885 26.4834 46.7877 26.3664C46.4869 26.2496 46.1393 26.2003 45.7949 26.226ZM62.1791 41.8285C61.7716 41.8591 61.3951 41.9921 61.1246 42.2019C60.8541 42.4118 60.7091 42.6829 60.7176 42.9618C60.7176 44.6011 59.2771 45.7684 56.6151 45.7684C56.3981 45.7664 56.1821 45.7936 55.9801 45.8487C55.7786 45.9041 55.5951 45.9857 55.4401 46.0895C55.2851 46.1935 55.1626 46.317 55.0786 46.4534C54.9946 46.5898 54.9516 46.7364 54.9516 46.884C54.9516 47.0319 54.9946 47.1782 55.0786 47.3146C55.1626 47.451 55.2851 47.5748 55.4401 47.6785C55.5951 47.7822 55.7786 47.8642 55.9801 47.9193C56.1821 47.9744 56.3981 48.0019 56.6151 47.9999C60.8961 47.9999 63.9996 45.6606 63.9996 42.9618C64.0046 42.8026 63.9601 42.6451 63.8681 42.4989C63.7761 42.353 63.6396 42.2217 63.4671 42.1145C63.2951 42.0074 63.0906 41.9265 62.8686 41.8768C62.6466 41.8275 62.4116 41.8112 62.1791 41.8285Z" fill="black"/>
</svg>
