<svg width="64" height="48" viewBox="0 0 64 48" fill="none" xmlns="http://www.w3.org/2000/svg">
<path d="M32 0C26.7956 0 22.5228 4.40429 22.5228 9.76868C22.5228 15.1331 26.7956 19.5374 32 19.5374C37.2044 19.5374 41.4772 15.1331 41.4772 9.76868C41.4772 4.40429 37.2044 0 32 0ZM32 3.04541C35.6322 3.04541 38.5228 6.02483 38.5228 9.76868C38.5228 13.5125 35.6322 16.492 32 16.492C28.3678 16.492 25.4772 13.5125 25.4772 9.76868C25.4772 6.02483 28.3678 3.04541 32 3.04541ZM9.45455 3.77162C5.45515 3.77162 2.18182 7.14559 2.18182 11.268C2.18182 15.3903 5.45515 18.7643 9.45455 18.7643C13.4539 18.7643 16.7273 15.3903 16.7273 11.268C16.7273 7.14559 13.4539 3.77162 9.45455 3.77162ZM54.5455 3.77162C50.546 3.77162 47.2728 7.14559 47.2728 11.268C47.2728 15.3903 50.546 18.7643 54.5455 18.7643C58.545 18.7643 61.818 15.3903 61.818 11.268C61.818 7.14559 58.545 3.77162 54.5455 3.77162ZM9.45455 6.77016C11.8817 6.77016 13.8182 8.76615 13.8182 11.268C13.8182 13.7698 11.8817 15.7658 9.45455 15.7658C7.02735 15.7658 5.0909 13.7698 5.0909 11.268C5.0909 8.76615 7.02735 6.77016 9.45455 6.77016ZM54.5455 6.77016C56.9725 6.77016 58.909 8.76615 58.909 11.268C58.909 13.7698 56.9725 15.7658 54.5455 15.7658C52.118 15.7658 50.182 13.7698 50.182 11.268C50.182 8.76615 52.118 6.77016 54.5455 6.77016ZM5.8182 24.0117C4.20274 24.0117 2.8144 24.9247 1.77273 26.1435C0.73106 27.3624 0 28.9755 0 30.7585V41.2533C8.52365e-05 42.0383 0.692975 42.7526 1.45455 42.7526H12.3637C13.1317 42.7631 13.8375 42.0449 13.8375 41.2533C13.8375 40.4618 13.1317 39.7436 12.3637 39.7541H2.9091V30.7585C2.9091 29.87 3.3247 28.8482 3.95454 28.1113C4.58438 27.3744 5.3865 27.0103 5.8182 27.0103C6.74525 27.0103 7.2416 27.1351 7.8409 27.3147C8.43465 27.493 9.20195 27.7644 10.1818 27.76C10.191 27.7598 10.1953 27.76 10.2045 27.76C12.0047 27.7675 13.3446 27.0829 14.2727 27.0103C14.3792 26.9998 14.417 27.0103 14.4773 27.0103C14.5491 27.0312 14.6559 27.0627 14.75 27.104C14.792 27.1227 14.7876 27.1341 14.8182 27.1506C15.2266 27.7229 16.0582 27.9201 16.6681 27.5889C17.278 27.2576 17.5907 26.4392 17.3636 25.7683C17.152 25.1398 16.8394 24.9165 16.5909 24.7377C16.3424 24.5586 16.1084 24.4367 15.8863 24.3394C15.6643 24.2418 15.45 24.1861 15.25 24.1284C15.0561 24.0733 14.9589 24.0071 14.5455 24.0117C14.5076 24.0117 14.4697 24.0117 14.4318 24.0117C14.2178 24.0117 14.0947 24.0312 14.0455 24.0352C12.3489 24.168 11.1242 24.7686 10.2045 24.7614C10.1969 24.7614 10.1894 24.7614 10.1818 24.7614C9.66955 24.7659 9.3208 24.6318 8.6591 24.4334C7.99735 24.2348 7.0744 24.0117 5.8182 24.0117ZM49.4546 24.0117C48.9622 24.011 48.532 24.1981 48.1136 24.3396C47.8916 24.4371 47.6576 24.559 47.409 24.7379C47.1606 24.9169 46.848 25.1403 46.6364 25.7687C46.4394 26.4283 46.7528 27.2098 47.344 27.5336C47.9352 27.8576 48.7388 27.6881 49.159 27.1508C49.2634 27.0819 49.3954 27.0598 49.5228 27.0105C49.6154 27.0031 49.652 27.0105 49.7272 27.0105C50.6555 27.0833 51.995 27.7679 53.7955 27.7603C53.8045 27.7605 53.809 27.7603 53.818 27.7603C54.798 27.7679 55.5655 27.4934 56.159 27.3152C56.7585 27.1355 57.255 27.0105 58.182 27.0105C58.6135 27.0105 59.4155 27.3748 60.0455 28.1117C60.675 28.8486 61.091 29.8704 61.091 30.7589V39.7543H51.6365C50.8685 39.7438 50.1625 40.462 50.1625 41.2538C50.1625 42.0453 50.8685 42.7633 51.6365 42.753H62.5455C63.307 42.753 64 42.0387 64 41.2538V30.7589C64 28.9759 63.269 27.3628 62.227 26.1439C61.1855 24.9249 59.797 24.0121 58.182 24.0121C56.9255 24.0121 56.0025 24.2352 55.341 24.4338C54.679 24.6323 54.3305 24.7665 53.818 24.7618C53.8105 24.7618 53.803 24.7618 53.7955 24.7618C52.876 24.7692 51.651 24.1684 49.9546 24.0356C49.9054 24.0319 49.7822 24.0121 49.5682 24.0121C49.5304 24.0121 49.4924 24.0121 49.4546 24.0121V24.0117ZM24.7954 25.5109C20.7276 25.3453 17.4545 28.8882 17.4545 33.0073V46.5008C17.4546 47.2858 18.1475 48 18.9091 48C27.6364 48 36.3636 48 45.091 48C45.8524 48 46.5454 47.2858 46.5454 46.5008V33.0073C46.5454 28.8882 43.2724 25.3453 39.2046 25.5109C36.108 25.6371 33.788 26.7645 32 26.7525C30.212 26.7647 27.892 25.6371 24.7954 25.5109ZM24.659 28.5096C27.0292 28.6061 29.2466 29.7693 32 29.7512C34.7534 29.7691 36.9708 28.6061 39.341 28.5096C41.6992 28.4134 43.6364 30.511 43.6364 33.0073V45.0015C35.8788 45.0015 28.1212 45.0015 20.3636 45.0015V33.0073C20.3636 30.511 22.3008 28.4134 24.659 28.5096Z" fill="black"/>
</svg>
