<svg width="39" height="31" viewBox="0 0 39 31" fill="none" xmlns="http://www.w3.org/2000/svg">
<path d="M38.0201 7.47964C38.0243 7.45903 38.0291 7.43894 38.028 7.4178C38.0275 7.40458 38.0227 7.39189 38.0201 7.37868C38.0169 7.36229 38.0164 7.3459 38.01 7.33004L35.3627 0.789384C35.3236 0.693175 35.2316 0.628682 35.128 0.624453C35.027 0.617053 34.9282 0.677316 34.8811 0.769825L33.4554 3.62175C33.4501 3.62704 33.4438 3.62915 33.439 3.63444C33.4047 3.67408 33.3883 3.72166 33.3814 3.77082L29.4188 11.6965L26.8513 13.7052H15.3062L16.4644 5.59246C16.4776 5.49678 16.4385 5.40215 16.3618 5.34348C16.2847 5.28638 16.1826 5.27423 16.0949 5.31334L8.48376 8.71398L0.954579 5.35722C0.868413 5.3181 0.764802 5.3292 0.688152 5.38788C0.610973 5.4455 0.571855 5.54065 0.585599 5.63633L1.77024 13.9336C1.77236 13.9474 1.77923 13.959 1.78293 13.9717C1.78663 13.9844 1.7898 13.9965 1.79509 14.0081C1.80619 14.0325 1.82205 14.0536 1.84002 14.0732C1.84531 14.0785 1.84742 14.0853 1.85218 14.0906L8.18932 19.9187C8.24007 19.9652 8.30456 19.9885 8.36852 19.9885C8.43037 19.9885 8.49275 19.9668 8.54244 19.9229L10.215 18.4581L12.3179 20.2343L10.104 27.7534C10.0802 27.8327 10.0955 27.9194 10.1458 27.986C10.196 28.0526 10.2742 28.0917 10.3572 28.0917H11.924L11.2738 30.0815C11.2474 30.1624 11.2622 30.2512 11.3119 30.3199C11.3621 30.3881 11.4409 30.4277 11.5249 30.4277C11.526 30.4277 11.527 30.4277 11.5281 30.4277L14.915 30.3897C14.9753 30.3886 15.0345 30.3675 15.081 30.3283L21.4377 25.0389L30.4972 30.5853C30.5395 30.6112 30.5876 30.6238 30.6352 30.6238C30.6897 30.6238 30.743 30.6075 30.789 30.5742C30.8752 30.5128 30.9164 30.405 30.8926 30.3014L28.1137 17.9675L33.6796 18.7467C33.6917 18.7483 33.7044 18.7494 33.716 18.7494C33.7636 18.7494 33.8117 18.7367 33.8551 18.7097C33.8577 18.7081 33.8593 18.7055 33.8619 18.7034C33.8677 18.6997 33.8709 18.6939 33.8762 18.6902C33.9106 18.6627 33.9365 18.6288 33.9534 18.5908C33.9565 18.5844 33.9629 18.5818 33.9645 18.5765L38.0132 7.52035C38.0137 7.51876 38.0137 7.51718 38.0137 7.51559C38.018 7.50343 38.0174 7.4918 38.0201 7.47964ZM33.6552 17.883L29.9311 11.854L33.7351 4.24553L37.4544 7.50819L33.6552 17.883ZM35.0926 1.52999L37.1024 6.49587L33.9798 3.75655L35.0926 1.52999ZM17.2156 14.2339H26.5088L21.4356 24.0943L17.2156 14.2339ZM8.41716 9.30392L14.38 13.7454L8.59425 15.5808L2.59278 13.7972L8.41716 9.30392ZM14.814 13.4097L8.98649 9.06869L15.8734 5.99157L14.814 13.4097ZM7.90281 9.0338L2.22962 13.4097L1.17607 6.03492L7.90281 9.0338ZM8.37275 19.3694L3.06749 14.4902L8.5213 16.1105C8.54614 16.1179 8.57152 16.1216 8.59689 16.1216C8.62385 16.1216 8.65081 16.1174 8.67671 16.1094L14.0385 14.4088L8.37275 19.3694ZM15.0456 14.2291C15.054 14.2302 15.0598 14.2339 15.0683 14.2339H16.4554L14.1992 21.134L10.6168 18.1071L15.0456 14.2291ZM10.7109 27.5642L12.7593 20.608L14.0227 21.6753L12.0974 27.5647H10.7109V27.5642ZM14.8156 29.8632L11.8918 29.8959L12.5209 27.9712C12.5484 27.9294 12.5684 27.8819 12.5684 27.828C12.5684 27.8274 12.5679 27.8269 12.5679 27.8264L16.8513 14.7255L21.0936 24.6372L14.8156 29.8632ZM21.7612 24.6176L26.8444 14.7371L30.2398 29.8082L21.7612 24.6176ZM27.2362 14.0748L29.5584 12.2573L33.1959 18.1457L27.9894 17.4167L27.2362 14.0748Z" fill="white" stroke="white"/>
</svg>
