<svg width="140" height="41" viewBox="0 0 140 41" fill="none" xmlns="http://www.w3.org/2000/svg">
<path d="M37.4374 7.8558C37.4415 7.83519 37.4462 7.8151 37.4451 7.79396C37.4446 7.78074 37.44 7.76805 37.4374 7.75484C37.4343 7.73845 37.4338 7.72206 37.4276 7.7062L34.851 1.16554C34.8129 1.06933 34.7234 1.00484 34.6226 1.00061C34.5243 0.993215 34.4281 1.05348 34.3823 1.14598L32.9946 3.99791C32.9895 4.0032 32.9833 4.00531 32.9787 4.0106C32.9453 4.05024 32.9293 4.09782 32.9226 4.14698L29.0658 12.0727L26.5669 14.0814H15.3301L16.4574 5.96862C16.4702 5.87294 16.4322 5.77831 16.3575 5.71964C16.2825 5.66254 16.1831 5.65039 16.0978 5.6895L8.68988 9.09014L1.36177 5.73338C1.2779 5.69426 1.17706 5.70536 1.10246 5.76404C1.02734 5.82166 0.989265 5.91681 1.00264 6.01249L2.15565 14.3098C2.15771 14.3236 2.1644 14.3352 2.168 14.3479C2.1716 14.3606 2.17468 14.3727 2.17983 14.3843C2.19064 14.4087 2.20607 14.4298 2.22356 14.4494C2.22871 14.4547 2.23076 14.4615 2.2354 14.4668L8.4033 20.2949C8.45269 20.3414 8.51546 20.3647 8.57771 20.3647C8.63791 20.3647 8.69863 20.343 8.74699 20.2991L10.3749 18.8343L12.4216 20.6105L10.2668 28.1296C10.2437 28.2089 10.2586 28.2956 10.3075 28.3622C10.3564 28.4288 10.4325 28.4679 10.5133 28.4679H12.0382L11.4054 30.4577C11.3797 30.5386 11.3941 30.6274 11.4425 30.6961C11.4913 30.7643 11.568 30.8039 11.6498 30.8039C11.6509 30.8039 11.6518 30.8039 11.6529 30.8039L14.9494 30.7659C15.0081 30.7648 15.0657 30.7437 15.1109 30.7045L21.2979 25.4151L30.1154 30.9615C30.1566 30.9874 30.2034 31 30.2497 31C30.3028 31 30.3547 30.9837 30.3994 30.9504C30.4833 30.889 30.5234 30.7812 30.5003 30.6776L27.7956 18.3437L33.2128 19.1229C33.2246 19.1245 33.237 19.1256 33.2483 19.1256C33.2946 19.1256 33.3414 19.1129 33.3837 19.0859C33.3862 19.0843 33.3877 19.0817 33.3903 19.0796C33.3959 19.0759 33.399 19.0701 33.4042 19.0664C33.4377 19.0389 33.4629 19.005 33.4793 18.967C33.4824 18.9606 33.4886 18.958 33.4901 18.9527L37.4307 7.89651C37.4312 7.89492 37.4312 7.89334 37.4312 7.89175C37.4354 7.87959 37.4348 7.86796 37.4374 7.8558ZM33.1891 18.2592L29.5645 12.2302L33.2669 4.62169L36.8868 7.88435L33.1891 18.2592ZM34.5881 1.90615L36.5442 6.87203L33.505 4.13271L34.5881 1.90615ZM17.1885 14.6101H26.2335L21.2958 24.4705L17.1885 14.6101ZM8.62506 9.68008L14.4287 14.1216L8.79742 15.957L2.95622 14.1734L8.62506 9.68008ZM14.8511 13.7859L9.17918 9.44485L15.8822 6.36773L14.8511 13.7859ZM8.12444 9.40996L2.60276 13.7859L1.57734 6.41108L8.12444 9.40996ZM8.58183 19.7456L3.41825 14.8664L8.72641 16.4867C8.75059 16.4941 8.77529 16.4978 8.79999 16.4978C8.82623 16.4978 8.85247 16.4936 8.87767 16.4856L14.0963 14.785L8.58183 19.7456ZM15.0765 14.6053C15.0847 14.6064 15.0903 14.6101 15.0986 14.6101H16.4486L14.2527 21.5102L10.766 18.4833L15.0765 14.6053ZM10.8575 27.9404L12.8512 20.9842L14.0809 22.0515L12.207 27.9409H10.8575V27.9404ZM14.8526 30.2394L12.0069 30.2721L12.6192 28.3474C12.646 28.3056 12.6654 28.2581 12.6654 28.2042C12.6654 28.2036 12.6649 28.2031 12.6649 28.2026L16.834 15.1017L20.963 25.0134L14.8526 30.2394ZM21.6127 24.9938L26.5602 15.1133L29.8649 30.1844L21.6127 24.9938ZM26.9415 14.451L29.2017 12.6335L32.7421 18.5219L27.6746 17.7929L26.9415 14.451Z" fill="white" stroke="#FFFDFD"/>
<path d="M53.7822 8.43359L53.7128 15.5586C54.137 15.0898 54.5882 14.7227 55.0664 14.457C55.5446 14.1836 55.992 13.9766 56.4085 13.8359C56.8867 13.6797 57.3611 13.5742 57.8316 13.5195C58.6955 13.5195 59.4822 13.6758 60.1919 13.9883C60.9015 14.3008 61.5108 14.75 62.0199 15.3359C62.529 15.9219 62.9301 16.6367 63.2232 17.4805C63.524 18.3164 63.6937 19.2617 63.7323 20.3164C63.7323 20.8711 63.7246 21.4375 63.7092 22.0156C63.7015 22.5938 63.6744 23.1602 63.6281 23.7148C63.5896 24.2695 63.5317 24.7969 63.4546 25.2969C63.3851 25.7969 63.2888 26.2461 63.1654 26.6445L60.5274 26.457C60.7511 25.707 60.9092 24.9766 61.0018 24.2656C61.102 23.5547 61.1715 22.918 61.21 22.3555C61.2486 21.6992 61.2602 21.0742 61.2448 20.4805C61.2062 19.6445 61.0635 18.9336 60.8167 18.3477C60.5698 17.7617 60.2652 17.2852 59.9026 16.918C59.5478 16.543 59.1545 16.2734 58.7225 16.1094C58.2906 15.9375 57.8663 15.8516 57.4498 15.8516C57.0101 15.8906 56.5666 16.0195 56.1193 16.2383C55.7336 16.4258 55.321 16.7188 54.8813 17.1172C54.4416 17.5078 54.0328 18.0625 53.6549 18.7812L53.5855 26.5508L51.3178 26.5977L51.1211 8.52734L53.7822 8.43359ZM78.3335 20.3164C78.3335 21.3008 78.1715 22.2109 77.8476 23.0469C77.5237 23.8828 77.0801 24.6094 76.517 25.2266C75.9539 25.8438 75.2944 26.3242 74.5386 26.668C73.7827 27.0195 72.9767 27.1953 72.1205 27.1953C71.2643 27.1953 70.4621 27.0312 69.7139 26.7031C68.9657 26.375 68.3101 25.9102 67.747 25.3086C67.1917 24.6992 66.752 23.9727 66.4281 23.1289C66.1041 22.2852 65.9421 21.3477 65.9421 20.3164C65.9421 19.2773 66.1041 18.3359 66.4281 17.4922C66.752 16.6406 67.1917 15.9141 67.747 15.3125C68.3101 14.7109 68.9657 14.2461 69.7139 13.918C70.4621 13.5898 71.2643 13.4258 72.1205 13.4258C72.9767 13.4258 73.7827 13.6016 74.5386 13.9531C75.2944 14.2969 75.9539 14.7773 76.517 15.3945C77.0801 16.0039 77.5237 16.7305 77.8476 17.5742C78.1715 18.4102 78.3335 19.3242 78.3335 20.3164ZM75.8922 20.293C75.8922 19.7305 75.8228 19.1641 75.684 18.5938C75.5451 18.0156 75.3253 17.5 75.0245 17.0469C74.7237 16.5859 74.3342 16.2109 73.8559 15.9219C73.3777 15.6328 72.7992 15.4883 72.1205 15.4883C71.4648 15.4883 70.9017 15.6328 70.4313 15.9219C69.9607 16.2109 69.5751 16.5859 69.2743 17.0469C68.9734 17.5 68.7536 18.0156 68.6148 18.5938C68.4759 19.1641 68.4065 19.7305 68.4065 20.293C68.4065 20.8555 68.4798 21.4219 68.6263 21.9922C68.7806 22.5625 69.0121 23.0781 69.3206 23.5391C69.6291 23.9922 70.0148 24.3633 70.4775 24.6523C70.948 24.9414 71.4957 25.0859 72.1205 25.0859C72.7761 25.0859 73.3392 24.9414 73.8096 24.6523C74.2879 24.3633 74.6812 23.9922 74.9898 23.5391C75.2983 23.0781 75.5259 22.5625 75.6725 21.9922C75.819 21.4219 75.8922 20.8555 75.8922 20.293ZM83.4706 13.707L83.4475 15.418C83.8871 14.9805 84.346 14.6445 84.8242 14.4102C85.3025 14.168 85.7421 13.9844 86.1432 13.8594C86.6137 13.7188 87.0726 13.6289 87.5201 13.5898C88.0445 13.5898 88.5651 13.668 89.082 13.8242C89.5987 13.9727 90.0885 14.1875 90.5514 14.4688C91.0141 14.7422 91.4422 15.0742 91.8356 15.4648C92.229 15.8555 92.5645 16.293 92.8422 16.7773C93.1198 17.2539 93.332 17.7695 93.4785 18.3242C93.6328 18.8789 93.6984 19.4609 93.6752 20.0703C93.6521 20.7422 93.5518 21.375 93.3744 21.9688C93.197 22.5625 92.9618 23.1094 92.6686 23.6094C92.3832 24.1016 92.0477 24.5469 91.6621 24.9453C91.2763 25.3438 90.8638 25.6797 90.4241 25.9531C89.9922 26.2266 89.5409 26.4336 89.0704 26.5742C88.6076 26.7227 88.1448 26.7969 87.682 26.7969C87.2115 26.7812 86.7333 26.7109 86.2473 26.5859C85.8231 26.4766 85.3564 26.3047 84.8473 26.0703C84.3383 25.8438 83.8369 25.5156 83.3433 25.0859L83.2739 33.0312L81.1219 33.0781L80.9252 13.8125L83.4706 13.707ZM91.072 20.293C91.1029 19.7227 91.0295 19.1758 90.8522 18.6523C90.6825 18.1211 90.4241 17.6562 90.077 17.2578C89.7375 16.8594 89.3288 16.543 88.8506 16.3086C88.3723 16.0742 87.8479 15.9609 87.2771 15.9688C86.7988 15.9766 86.3477 16.0664 85.9234 16.2383C85.5069 16.4023 85.1289 16.625 84.7895 16.9062C84.4579 17.1797 84.1724 17.5 83.9333 17.8672C83.702 18.2344 83.5284 18.6172 83.4127 19.0156L83.3896 21.2422C83.5052 21.7578 83.6865 22.2109 83.9333 22.6016C84.1801 22.9922 84.4694 23.3203 84.801 23.5859C85.1405 23.8438 85.5069 24.043 85.9002 24.1836C86.2936 24.3164 86.6908 24.3867 87.092 24.3945C87.6318 24.4102 88.1371 24.3125 88.6076 24.1016C89.0858 23.8906 89.5024 23.5977 89.8571 23.2227C90.2119 22.8477 90.4935 22.4102 90.7017 21.9102C90.9178 21.4102 91.0412 20.8711 91.072 20.293ZM98.8125 13.707L98.7888 15.418C99.2291 14.9805 99.6872 14.6445 100.166 14.4102C100.644 14.168 101.084 13.9844 101.485 13.8594C101.955 13.7188 102.414 13.6289 102.861 13.5898C103.387 13.5898 103.907 13.668 104.423 13.8242C104.941 13.9727 105.43 14.1875 105.893 14.4688C106.355 14.7422 106.784 15.0742 107.177 15.4648C107.571 15.8555 107.907 16.293 108.184 16.7773C108.461 17.2539 108.674 17.7695 108.82 18.3242C108.975 18.8789 109.04 19.4609 109.017 20.0703C108.994 20.7422 108.894 21.375 108.716 21.9688C108.538 22.5625 108.303 23.1094 108.01 23.6094C107.725 24.1016 107.389 24.5469 107.004 24.9453C106.618 25.3438 106.205 25.6797 105.766 25.9531C105.334 26.2266 104.882 26.4336 104.412 26.5742C103.949 26.7227 103.486 26.7969 103.023 26.7969C102.553 26.7812 102.075 26.7109 101.589 26.5859C101.165 26.4766 100.698 26.3047 100.189 26.0703C99.6803 25.8438 99.1788 25.5156 98.6851 25.0859L98.616 33.0312L96.4637 33.0781L96.2672 13.8125L98.8125 13.707ZM106.414 20.293C106.444 19.7227 106.371 19.1758 106.194 18.6523C106.024 18.1211 105.766 17.6562 105.419 17.2578C105.079 16.8594 104.67 16.543 104.192 16.3086C103.714 16.0742 103.189 15.9609 102.619 15.9688C102.141 15.9766 101.689 16.0664 101.265 16.2383C100.848 16.4023 100.47 16.625 100.132 16.9062C99.7998 17.1797 99.5145 17.5 99.2755 17.8672C99.0435 18.2344 98.8698 18.6172 98.7543 19.0156L98.7315 21.2422C98.8471 21.7578 99.0287 22.2109 99.2755 22.6016C99.5224 22.9922 99.8107 23.3203 100.142 23.5859C100.482 23.8438 100.848 24.043 101.242 24.1836C101.635 24.3164 102.032 24.3867 102.434 24.3945C102.974 24.4102 103.478 24.3125 103.949 24.1016C104.427 23.8906 104.844 23.5977 105.199 23.2227C105.554 22.8477 105.835 22.4102 106.043 21.9102C106.26 21.4102 106.383 20.8711 106.414 20.293ZM114.721 10.3789C114.721 10.6055 114.674 10.8203 114.582 11.0234C114.497 11.2266 114.377 11.4023 114.223 11.5508C114.077 11.6992 113.903 11.8164 113.703 11.9023C113.503 11.9883 113.286 12.0312 113.055 12.0312C112.831 12.0312 112.619 11.9883 112.418 11.9023C112.226 11.8164 112.052 11.6992 111.898 11.5508C111.751 11.4023 111.636 11.2266 111.551 11.0234C111.466 10.8203 111.423 10.6055 111.423 10.3789C111.423 10.1445 111.466 9.92578 111.551 9.72266C111.636 9.51953 111.751 9.34375 111.898 9.19531C112.052 9.03906 112.226 8.91797 112.418 8.83203C112.619 8.73828 112.831 8.69141 113.055 8.69141C113.286 8.69141 113.503 8.73828 113.703 8.83203C113.903 8.91797 114.077 9.03906 114.223 9.19531C114.377 9.34375 114.497 9.51953 114.582 9.72266C114.674 9.92578 114.721 10.1445 114.721 10.3789ZM114.177 14.5039C114.154 15.6211 114.13 16.6484 114.108 17.5859C114.092 18.5156 114.077 19.3633 114.061 20.1289C114.046 20.8945 114.031 21.582 114.015 22.1914C114.007 22.793 114 23.3203 113.992 23.7734C113.969 24.8516 113.958 25.6992 113.958 26.3164H111.585C111.601 25.4727 111.62 24.4688 111.643 23.3047C111.658 22.3047 111.678 21.082 111.701 19.6367C111.732 18.1914 111.759 16.5117 111.782 14.5977L114.177 14.5039ZM117.845 26.8672C117.798 25.5234 117.756 24.3086 117.717 23.2227C117.679 22.1289 117.644 21.1523 117.614 20.293C117.582 19.4336 117.555 18.6758 117.533 18.0195C117.517 17.3633 117.501 16.7969 117.486 16.3203C117.456 15.2031 117.432 14.375 117.417 13.8359L120.054 13.7891L120.101 17.1641C120.355 16.7188 120.645 16.3008 120.968 15.9102C121.292 15.5117 121.644 15.1602 122.022 14.8555C122.399 14.5508 122.801 14.3047 123.224 14.1172C123.657 13.9297 124.108 13.8203 124.578 13.7891C125.165 13.75 125.674 13.8008 126.105 13.9414C126.546 14.082 126.92 14.2773 127.228 14.5273C127.537 14.7773 127.791 15.0742 127.991 15.418C128.193 15.7539 128.351 16.1055 128.466 16.4727C128.582 16.832 128.663 17.1914 128.709 17.5508C128.763 17.9102 128.798 18.2383 128.813 18.5352C128.859 19.8789 128.871 21.2305 128.848 22.5898C128.824 23.9492 128.798 25.3594 128.767 26.8203L126.395 26.7383C126.457 25.4805 126.51 24.2227 126.557 22.9648C126.611 21.707 126.607 20.4375 126.546 19.1562C126.546 19.0156 126.534 18.8359 126.51 18.6172C126.495 18.3906 126.453 18.1523 126.384 17.9023C126.322 17.6523 126.233 17.4062 126.117 17.1641C126.002 16.9141 125.851 16.6992 125.666 16.5195C125.48 16.332 125.253 16.1914 124.984 16.0977C124.721 16.0039 124.412 15.9844 124.058 16.0391C123.449 16.1328 122.828 16.5859 122.195 17.3984C121.571 18.2031 120.895 19.3828 120.171 20.9375C120.201 22.1953 120.224 23.1992 120.24 23.9492C120.263 24.6914 120.282 25.2539 120.297 25.6367C120.313 26.0898 120.325 26.3945 120.333 26.5508L117.845 26.8672Z" fill="white"/>
</svg>
