<?xml version="1.0" encoding="utf-8"?>
<!-- Generator: Adobe Illustrator 15.1.0, SVG Export Plug-In . SVG Version: 6.00 Build 0)  -->
<!DOCTYPE svg PUBLIC "-//W3C//DTD SVG 1.1//EN" "http://www.w3.org/Graphics/SVG/1.1/DTD/svg11.dtd">
<svg version="1.1" id="Layer_1" xmlns="http://www.w3.org/2000/svg" xmlns:xlink="http://www.w3.org/1999/xlink" x="0px" y="0px"
	 width="20px" height="20px" viewBox="0 0 20 20" enable-background="new 0 0 20 20" xml:space="preserve">
<title>Instagram</title>
<desc>Created with Sketch.</desc>
<g id="Restaurant-Redesign">
	<g id="Desktop-HD" transform="translate(-217.000000, -4349.000000)">
		<g id="Instagram" transform="translate(217.000000, 4349.000000)">
			<path id="Fill-148" fill="#FFFFFF" d="M16.521,4.348c0-0.48-0.389-0.869-0.869-0.869s-0.869,0.389-0.869,0.869
				s0.389,0.87,0.869,0.87S16.521,4.828,16.521,4.348"/>
			<path id="Fill-149" fill="#FFFFFF" d="M10,13.913c-2.104,0-3.913-1.81-3.913-3.913c0-2.104,1.809-3.913,3.913-3.913
				c2.104,0,3.913,1.809,3.913,3.913C13.913,12.104,12.104,13.913,10,13.913 M10,4.348c-3.122,0-5.652,2.531-5.652,5.652
				c0,3.121,2.531,5.652,5.652,5.652c3.121,0,5.652-2.531,5.652-5.652C15.652,6.878,13.121,4.348,10,4.348"/>
			<path id="Fill-150" fill="#FFFFFF" d="M18.261,15.831c0,1.342-1.088,2.43-2.429,2.43H4.168c-1.341,0-2.429-1.088-2.429-2.43
				V4.168c0-1.341,1.088-2.429,2.429-2.429h11.664c1.341,0,2.429,1.088,2.429,2.429V15.831z M15.652,0H4.348
				C1.946,0,0,1.946,0,4.348v11.305C0,18.053,1.946,20,4.348,20h11.305C18.054,20,20,18.053,20,15.652V4.348
				C20,1.946,18.054,0,15.652,0z"/>
		</g>
	</g>
</g>
</svg>
