<svg width="20" height="20" viewBox="0 0 63 61" fill="none" xmlns="http://www.w3.org/2000/svg">
<path d="M62.616 37.611V60.739H49.207V39.161C49.207 33.743 47.271 30.043 42.416 30.043C38.711 30.043 36.51 32.534 35.538 34.946C35.185 35.808 35.094 37.005 35.094 38.214V60.738H21.684C21.684 60.738 21.864 24.192 21.684 20.409H35.095V26.124C35.068 26.169 35.03 26.213 35.006 26.256H35.095V26.124C36.877 23.382 40.055 19.462 47.18 19.462C56.002 19.462 62.616 25.226 62.616 37.611ZM7.656 0.968994C3.069 0.968994 0.0680008 3.98 0.0680008 7.936C0.0680008 11.808 2.982 14.906 7.48 14.906H7.567C12.244 14.906 15.152 11.808 15.152 7.936C15.063 3.98 12.244 0.968994 7.656 0.968994ZM0.865 60.739H14.27V20.409H0.865V60.739Z" fill="#FEFFFF"/>
</svg>
