<svg width="64" height="48" viewBox="0 0 64 48" fill="none" xmlns="http://www.w3.org/2000/svg">
<path d="M41.659 0.304238C41.5669 0.309815 41.4756 0.323042 41.3863 0.343721L19.4545 5.81217L1.77271 2.43634C1.56083 2.39508 1.34095 2.39558 1.12927 2.43778C0.9176 2.47998 0.71949 2.56279 0.549485 2.68016C0.379472 2.79757 0.241875 2.94652 0.146795 3.11611C0.05171 3.28573 0.00155113 3.47165 0 3.66033V35.3656C0.00234091 35.6511 0.115949 35.9275 0.322307 36.1498C0.528665 36.372 0.8156 36.5271 1.13637 36.5895L20.159 40.3207C20.4068 40.3712 20.6653 40.3644 20.909 40.301L36 36.3527C36.1979 36.3171 36.3852 36.2461 36.5498 36.1442C36.7144 36.0423 36.8528 35.9117 36.9561 35.7608C37.0593 35.6099 37.1253 35.4419 37.1496 35.2676C37.174 35.0933 37.1562 34.9165 37.0976 34.7484C37.0389 34.5804 36.9406 34.4249 36.8089 34.2917C36.6771 34.1585 36.5149 34.0506 36.3325 33.975C36.1502 33.8993 35.9515 33.8575 35.7495 33.8522C35.5475 33.8468 35.3464 33.8782 35.159 33.9442L20.4318 37.7741L2.90907 34.339V5.23969L18.1818 8.14172L18.25 34.6944C18.2473 34.8618 18.2828 35.028 18.3547 35.1834C18.4266 35.3387 18.5333 35.4801 18.6686 35.5993C18.804 35.7186 18.9653 35.8132 19.1431 35.8779C19.321 35.9425 19.5118 35.9758 19.7045 35.9758C19.8973 35.9758 20.0882 35.9425 20.266 35.8779C20.4438 35.8132 20.6051 35.7186 20.7404 35.5993C20.8758 35.4801 20.9824 35.3387 21.0543 35.1834C21.1262 35.028 21.1618 34.8618 21.159 34.6944L21.0909 8.02324L40.0909 3.28524L40.0227 17.4993C40.02 17.6667 40.0556 17.8329 40.1274 17.9883C40.1993 18.1436 40.306 18.2851 40.4413 18.4043C40.5767 18.5235 40.7379 18.6182 40.9158 18.6829C41.0936 18.7475 41.2845 18.7807 41.4772 18.7807C41.67 18.7807 41.8609 18.7475 42.0387 18.6829C42.2165 18.6182 42.3778 18.5235 42.5131 18.4043C42.6484 18.2851 42.7552 18.1436 42.827 17.9883C42.8989 17.8329 42.9345 17.6667 42.9318 17.4993L43 3.04834L52.409 4.72637L52.3865 15.9595C52.3835 16.1268 52.419 16.2931 52.491 16.4485C52.563 16.6038 52.67 16.7452 52.805 16.8644C52.9405 16.9837 53.1015 17.0783 53.2795 17.143C53.4575 17.2076 53.6485 17.2409 53.841 17.2409C54.0335 17.2409 54.2245 17.2076 54.4025 17.143C54.58 17.0783 54.7415 16.9837 54.8765 16.8644C55.012 16.7452 55.119 16.6038 55.191 16.4485C55.2625 16.2931 55.2985 16.1268 55.2955 15.9595L55.318 3.68008C55.32 3.38839 55.205 3.1052 54.9945 2.87851C54.783 2.65183 54.488 2.49557 54.159 2.43634L42.0909 0.32398C41.9489 0.29871 41.8033 0.292097 41.659 0.304238ZM50.8865 18.3679C42.8914 18.3679 37.75 23.8149 37.75 29.8576C37.75 33.2644 39.9104 36.7637 42.4318 39.9654C44.9533 43.167 47.9332 46.0542 49.7954 47.8818C49.9318 48.013 50.0985 48.1177 50.2845 48.1898C50.4705 48.2614 50.6715 48.2983 50.875 48.2983C51.0785 48.2983 51.2795 48.2614 51.4655 48.1898C51.6515 48.1177 51.818 48.013 51.9545 47.8818C53.817 46.0542 56.7965 43.167 59.318 39.9654C61.84 36.7637 64 33.2644 64 29.8576C64 23.8149 58.8815 18.3679 50.8865 18.3679ZM50.8865 20.8949C57.4125 20.8949 61.091 24.9983 61.091 29.8576C61.091 32.2656 59.289 35.5216 56.909 38.544C54.9095 41.0829 52.6715 43.3323 50.8635 45.1178C49.057 43.3333 46.837 41.0785 44.8409 38.544C42.4607 35.5216 40.659 32.2656 40.659 29.8576C40.659 24.9983 44.36 20.8949 50.8865 20.8949ZM50.8865 22.8888C47.0446 22.8888 43.8409 25.6384 43.8409 29.0482C43.8409 32.458 47.0446 35.2076 50.8865 35.2076C54.728 35.2076 57.909 32.458 57.909 29.0482C57.909 25.6384 54.728 22.8888 50.8865 22.8888ZM50.8865 25.4749C53.242 25.4749 55.068 27.0831 55.068 29.0482C55.068 31.0132 53.242 32.6215 50.8865 32.6215C48.5308 32.6215 46.6818 31.0132 46.6818 29.0482C46.6818 27.0831 48.5308 25.4749 50.8865 25.4749Z" fill="black"/>
</svg>
