<?xml version="1.0" encoding="utf-8"?>
<!-- Generator: Adobe Illustrator 15.1.0, SVG Export Plug-In . SVG Version: 6.00 Build 0)  -->
<!DOCTYPE svg PUBLIC "-//W3C//DTD SVG 1.1//EN" "http://www.w3.org/Graphics/SVG/1.1/DTD/svg11.dtd">
<svg version="1.1" id="Layer_1" xmlns="http://www.w3.org/2000/svg" xmlns:xlink="http://www.w3.org/1999/xlink" x="0px" y="0px"
	 width="20px" height="16px" viewBox="0 0 20 16" enable-background="new 0 0 20 16" xml:space="preserve">
<title>TwitterVector</title>
<desc>Created with Sketch.</desc>
<g id="Restaurant-Redesign">
	<g id="Desktop-HD" transform="translate(-133.000000, -4351.000000)">
		<g id="TwitterVector" transform="translate(133.000000, 4351.000000)">
			<path id="Fill-61" fill="#FFFFFF" d="M13.951,0c-2.32,0.042-4.135,2.014-4.135,4.312V4.87C5.689,4.131,3.626,3.022,1.388,0.696
				C0.048,3.261,1.512,5.435,3.144,6.609c-1.092,0-1.988-0.155-2.692-0.763C0.398,5.8,0.315,5.847,0.334,5.914
				c0.612,2.145,2.63,3.706,4.214,4.173c-1.43,0-2.399,0.212-3.401-0.427C1.089,9.623,1.015,9.68,1.038,9.743
				c0.758,2.11,2.306,2.778,4.564,2.778c-1.123,0.818-2.617,1.678-5.475,1.736c-0.116,0.003-0.172,0.146-0.082,0.219
				C1.124,15.338,3.711,16,7.357,16c6.018,0,10.887-5.289,10.887-11.826V3.826c0.936-0.347,1.485-1.177,1.753-2.01
				c0.015-0.046-0.032-0.089-0.078-0.074l-1.976,0.675c-0.045,0.015-0.076-0.042-0.04-0.071c0.827-0.675,1.483-1.505,1.743-2.297
				c0.01-0.03-0.023-0.058-0.053-0.046c-0.949,0.395-1.853,0.765-2.566,0.984c-0.119,0.037-0.245,0.021-0.354-0.039
				C16.205,0.689,14.848-0.016,13.951,0"/>
		</g>
	</g>
</g>
</svg>
