<?xml version="1.0" encoding="iso-8859-1"?>
<!-- Generator: Adobe Illustrator 19.0.0, SVG Export Plug-In . SVG Version: 6.00 Build 0)  -->
<svg version="1.1" id="Capa_1" xmlns="http://www.w3.org/2000/svg" xmlns:xlink="http://www.w3.org/1999/xlink" x="0px" y="0px"
	 viewBox="0 0 512 512" style="enable-background:new 0 0 512 512;" xml:space="preserve">
<path style="fill:#2D5872;" d="M86.453,489.844l131.939-154.823l-41.414-41.414L22.155,425.546l0.04,0.04
	c-0.548,0.497-1.088,1.008-1.617,1.537c-17.755,17.755-17.755,46.543,0,64.298s46.543,17.755,64.298,0
	c0.529-0.529,1.04-1.069,1.537-1.617L86.453,489.844z M40.656,471.343c-7.278-7.278-7.278-19.077,0-26.355s19.077-7.278,26.355,0
	s7.278,19.077,0,26.355S47.934,478.621,40.656,471.343z"/>
<path style="fill:#234C60;" d="M218.392,335.022l-20.707-20.707L67.011,444.989c7.278,7.278,7.277,19.077,0,26.354
	c-7.278,7.278-19.077,7.278-26.354,0l-20.078,20.078c17.755,17.755,46.543,17.755,64.298,0c0.529-0.529,1.04-1.069,1.537-1.617
	l0.04,0.04L218.392,335.022z"/>
<path style="fill:#FF4C4C;" d="M315.334,387.03L124.969,196.666L277.173,16.592c9.281-10.981,25.273-12.477,34.52-3.229
	l186.944,186.944c9.248,9.248,7.752,25.239-3.229,34.52L315.334,387.03z"/>
<path style="fill:#F33939;" d="M496.877,233.479c0.253-0.247,0.5-0.497,0.741-0.752c0.118-0.125,0.235-0.251,0.35-0.378
	c0.236-0.26,0.465-0.523,0.689-0.79c0.096-0.114,0.194-0.226,0.287-0.342c0.304-0.375,0.6-0.754,0.88-1.141
	c0.004-0.005,0.008-0.01,0.012-0.016c0.292-0.402,0.568-0.812,0.833-1.226c0.063-0.099,0.122-0.199,0.184-0.297
	c0.197-0.317,0.388-0.635,0.57-0.958c0.069-0.122,0.136-0.244,0.203-0.366c0.174-0.32,0.341-0.643,0.5-0.968
	c0.053-0.107,0.107-0.214,0.158-0.321c4.109-8.667,3.056-18.914-3.648-25.618l-32.29-32.29c9.248,9.248,7.752,25.239-3.229,34.52
	l-128.85,108.91c-13.522,11.429-33.546,10.591-46.065-1.929L148.047,169.363l-23.078,27.303L315.334,387.03l180.074-152.203
	c0.391-0.331,0.767-0.672,1.134-1.019C496.656,233.7,496.766,233.589,496.877,233.479z"/>
<path style="fill:#2D5872;" d="M290.542,423.172L88.828,221.458c-5.642-5.642-5.642-14.791,0-20.433l22.864-22.864
	c5.642-5.642,14.791-5.642,20.433,0l201.714,201.714c5.642,5.642,5.642,14.791,0,20.433l-22.864,22.864
	C305.332,428.814,296.184,428.814,290.542,423.172z"/>
<path style="fill:#234C60;" d="M312.19,401.523L110.476,199.81c-5.642-5.642-5.642-14.791,0-20.433l-21.648,21.648
	c-5.642,5.642-5.642,14.791,0,20.433l201.714,201.714c5.642,5.642,14.791,5.642,20.433,0l21.648-21.648
	C326.981,407.166,317.832,407.166,312.19,401.523z"/>
<path style="fill:#FFB123;" d="M233.803,104.878c-8.266,8.266-8.266,21.667,0,29.932l0,0c8.266,8.266,21.667,8.266,29.932,0
	l20.839-20.839c8.266-8.266,21.667-8.266,29.932,0l0,0c8.244,8.244,8.264,21.597,0.061,29.868l-5.936,5.936
	c-6.974,6.974-8.064,17.605-3.269,25.722c0.888,1.503,1.978,2.921,3.27,4.213l0,0c8.266,8.266,21.667,8.266,29.932,0l20.903-20.903
	c8.271-8.202,21.623-8.183,29.868,0.061l0,0c8.266,8.266,8.266,21.667,0,29.932l-5.873,5.873c-8.266,8.266-8.266,21.667,0,29.932
	c8.266,8.266,21.667,8.265,29.932,0l54.77-54.77L319.051,20.721L233.803,104.878z"/>
<path style="fill:#FF901D;" d="M308.633,179.708L308.633,179.708L308.633,179.708c8.266,8.266,21.668,8.266,29.933,0.001
	l20.903-20.903c8.271-8.202,21.623-8.183,29.868,0.061l0,0c8.265,8.265,8.266,21.667,0,29.932l-5.873,5.873
	c-8.266,8.266-8.266,21.667,0,29.932c8.266,8.266,21.667,8.265,29.932,0l54.77-54.77l-74.83-74.83L308.633,179.708z"/>
<path d="M503.79,195.154l-99.901-99.901l-79.685-79.685c-0.003-0.003-0.006-0.006-0.009-0.009l-7.349-7.349
	c-5.62-5.621-13.254-8.536-21.485-8.181c-9.046,0.379-17.703,4.7-23.753,11.858l-135.38,160.171
	c-8.528-7.488-21.551-7.187-29.688,0.95l-22.863,22.863c-8.475,8.475-8.475,22.265,0,30.74l73.931,73.931l-81.606,69.544
	c-3.064,2.61-3.431,7.209-0.82,10.272c2.609,3.063,7.209,3.43,10.272,0.82l82.492-70.298l33.175,33.175L81.496,484.427
	c-0.165,0.152-0.324,0.311-0.476,0.479c-0.419,0.461-0.85,0.918-1.296,1.362c-14.884,14.886-39.106,14.888-53.992,0
	c-14.886-14.886-14.886-39.106,0-53.992c0.445-0.446,0.901-0.877,1.362-1.296c0.166-0.15,0.324-0.307,0.473-0.472l23.329-19.881
	c3.064-2.61,3.431-7.209,0.82-10.272c-2.61-3.064-7.211-3.432-10.272-0.82l-24.015,20.466c-0.301,0.255-0.576,0.533-0.826,0.831
	c-0.398,0.372-0.789,0.751-1.177,1.139c-20.567,20.568-20.567,54.036,0,74.604C25.71,506.857,39.219,512,52.728,512
	c13.508,0,27.017-5.143,37.301-15.426c0.381-0.382,0.755-0.769,1.122-1.159c0.303-0.256,0.586-0.538,0.847-0.844l119.458-140.177
	l73.931,73.931c4.237,4.237,9.804,6.356,15.37,6.356s11.132-2.119,15.37-6.356l22.863-22.863c8.137-8.137,8.438-21.161,0.95-29.688
	l93.391-78.937c3.073-2.598,3.459-7.195,0.862-10.269c-2.599-3.072-7.196-3.457-10.27-0.862l-94.269,79.68l-183.04-183.04
	l136.123-161.05c3.426-4.053,8.249-6.497,13.232-6.706c4.117-0.179,7.867,1.222,10.571,3.926l2.173,2.173l-80.029,79.004
	c-0.011,0.01-0.023,0.022-0.034,0.033c-11.093,11.093-11.093,29.144,0.001,40.238c11.093,11.092,29.144,11.092,40.237,0
	l20.839-20.84c5.411-5.411,14.216-5.411,19.627,0c5.388,5.387,5.406,14.173,0.062,19.562l-5.936,5.936
	c-9.186,9.187-10.991,23.407-4.39,34.579c1.213,2.054,2.69,3.958,4.392,5.662c11.093,11.092,29.143,11.093,40.238-0.001
	l20.88-20.881c5.411-5.365,14.196-5.347,19.584,0.041c2.621,2.621,4.065,6.106,4.065,9.813c0,3.708-1.444,7.193-4.066,9.814
	l-5.873,5.874c-11.093,11.093-11.093,29.144,0,40.237c5.375,5.374,12.52,8.333,20.12,8.333s14.745-2.959,20.119-8.333l49.618-49.617
	l25.318,25.318c2.704,2.704,4.098,6.459,3.926,10.572c-0.209,4.983-2.654,9.806-6.707,13.231l-32.245,27.255
	c-3.073,2.598-3.459,7.195-0.862,10.269c2.599,3.072,7.196,3.459,10.27,0.861l32.244-27.254c7.159-6.051,11.482-14.707,11.86-23.752
	C512.316,208.406,509.411,200.775,503.79,195.154z M324.087,380.43l4.598,4.598c2.793,2.792,2.793,7.335,0,10.128l-22.863,22.863
	c-2.791,2.793-7.336,2.793-10.128,0l-79.511-79.511l-42.691-42.691l-79.511-79.511c-2.792-2.792-2.792-7.335,0-10.128l22.863-22.863
	c1.396-1.397,3.23-2.095,5.064-2.095s3.668,0.698,5.064,2.095l4.598,4.598L324.087,380.43z M408.242,219.453
	c-2.621,2.622-6.106,4.065-9.813,4.065s-7.192-1.444-9.814-4.066c-5.411-5.41-5.411-14.215,0-19.626l5.872-5.873
	c5.375-5.374,8.334-12.519,8.334-20.12c0-7.6-2.959-14.744-8.333-20.119c-5.536-5.536-12.82-8.307-20.11-8.307
	c-7.257,0-14.519,2.747-20.064,8.246l-20.901,20.902c-5.411,5.411-14.217,5.411-19.626,0.002c-0.836-0.835-1.559-1.767-2.151-2.77
	c-3.217-5.445-2.334-12.379,2.148-16.861l5.957-5.958c11.001-11.093,10.964-29.105-0.083-40.152
	c-11.094-11.092-29.143-11.093-40.238,0l-20.84,20.84c-5.41,5.412-14.216,5.411-19.626,0.001
	c-5.406-5.407-5.411-14.203-0.013-19.616l80.075-79.05l74.354,74.353l64.489,64.489L408.242,219.453z"/>
<path d="M35.503,476.496c5.054,5.053,11.691,7.58,18.33,7.58c6.638,0,13.277-2.528,18.33-7.58c0,0,0,0,0.001,0
	c10.106-10.107,10.107-26.552-0.001-36.661c-10.107-10.107-26.553-10.107-36.66,0.001S25.397,466.39,35.503,476.496z
	 M45.809,450.141c2.213-2.213,5.118-3.319,8.024-3.319s5.813,1.106,8.025,3.318c4.425,4.425,4.425,11.626,0.001,16.05
	c-4.426,4.424-11.626,4.426-16.05,0C41.384,461.766,41.384,454.566,45.809,450.141z"/>
<g>
</g>
<g>
</g>
<g>
</g>
<g>
</g>
<g>
</g>
<g>
</g>
<g>
</g>
<g>
</g>
<g>
</g>
<g>
</g>
<g>
</g>
<g>
</g>
<g>
</g>
<g>
</g>
<g>
</g>
</svg>
