<svg width="512" height="512" viewBox="0 0 512 512" fill="none" xmlns="http://www.w3.org/2000/svg">
<path d="M512 256C512 397.387 397.387 512 256 512C114.613 512 0 397.387 0 256C0 114.613 114.613 0 256 0C397.387 0 512 114.613 512 256Z" fill="#ED805C"/>
<path d="M510.566 283.168L287.176 59.7812L224.824 122.133L270.945 168.258L177.535 442.219L247.148 511.832C250.09 511.93 253.035 512 256 512C388.207 512 496.996 411.777 510.566 283.168V283.168Z" fill="#ED805C"/>
<path d="M238.16 109.664H273.84V152.965H238.16V109.664Z" fill="#FFCE00"/>
<path d="M255.594 109.664H273.84V152.965H255.594V109.664Z" fill="#FFB600"/>
<path d="M177.535 135.859H334.461V442.219H177.535V135.859Z" fill="#555A66"/>
<path d="M255.594 135.859H334.465V442.219H255.594V135.859Z" fill="#333940"/>
<path d="M224.824 59.7812H287.176V122.133H224.824V59.7812Z" fill="white"/>
<path d="M255.594 59.7812H287.176V122.133H255.594V59.7812Z" fill="#E9EDF5"/>
<path d="M316.277 272.824C316.277 306.113 289.289 333.102 256 333.102C222.711 333.102 195.723 306.113 195.723 272.824C195.723 239.535 222.711 212.547 256 212.547C289.289 212.547 316.277 239.535 316.277 272.824V272.824Z" fill="#EEEEEE"/>
<path d="M256 212.547C255.863 212.547 255.73 212.559 255.594 212.559V333.09C255.73 333.09 255.863 333.102 256 333.102C289.289 333.102 316.277 306.113 316.277 272.824C316.277 239.535 289.289 212.547 256 212.547V212.547Z" fill="#EEEEEE"/>
<path d="M275.746 88.5312C275.746 99.4375 266.906 108.277 256 108.277C245.094 108.277 236.254 99.4375 236.254 88.5312C236.254 77.625 245.094 68.7852 256 68.7852C266.906 68.7852 275.746 77.625 275.746 88.5312V88.5312Z" fill="#555A66"/>
<path d="M256 68.7852C255.863 68.7852 255.73 68.8047 255.594 68.8047V108.258C255.73 108.258 255.863 108.277 256 108.277C266.906 108.277 275.746 99.4375 275.746 88.5312C275.746 77.6289 266.906 68.7852 256 68.7852V68.7852Z" fill="#333940"/>
</svg>
